<svg xmlns="http://www.w3.org/2000/svg" viewBox="0 0 100 100">
  <defs>
    <linearGradient id="cover1" x1="0" y1="0" x2="1" y2="1">
      <stop offset="0%" stop-color="#FF6B35"/>
      <stop offset="100%" stop-color="#FF8F65"/>
    </linearGradient>
    <linearGradient id="cover2" x1="0" y1="0" x2="1" y2="1">
      <stop offset="0%" stop-color="#4ECDC4"/>
      <stop offset="100%" stop-color="#44B8AC"/>
    </linearGradient>
    <linearGradient id="pages" x1="0" y1="0" x2="0" y2="1">
      <stop offset="0%" stop-color="#FFF8E1"/>
      <stop offset="100%" stop-color="#FFECB3"/>
    </linearGradient>
  </defs>
  <rect x="28" y="18" width="48" height="62" rx="4" fill="url(#cover2)" transform="rotate(-8 52 49)"/>
  <rect x="30" y="22" width="44" height="56" rx="2" fill="url(#pages)" transform="rotate(-3 52 50)"/>
  <line x1="38" y1="34" x2="66" y2="33" stroke="#E0C97F" stroke-width="1.5" stroke-linecap="round" transform="rotate(-3 52 50)"/>
  <line x1="38" y1="42" x2="62" y2="41" stroke="#E0C97F" stroke-width="1.5" stroke-linecap="round" transform="rotate(-3 52 50)"/>
  <line x1="38" y1="50" x2="58" y2="49" stroke="#E0C97F" stroke-width="1.5" stroke-linecap="round" transform="rotate(-3 52 50)"/>
  <rect x="24" y="20" width="48" height="62" rx="4" fill="url(#cover1)"/>
  <line x1="28" y1="22" x2="28" y2="80" stroke="#E55A2B" stroke-width="1.5" opacity="0.4"/>
  <polygon points="48,36 50,42 56,42 51,46 53,52 48,48 43,52 45,46 40,42 46,42" fill="#FFD700"/>
  <circle cx="60" cy="34" r="2" fill="#FFD700" opacity="0.7"/>
  <circle cx="38" cy="58" r="1.5" fill="#FFD700" opacity="0.5"/>
</svg>
